# Hierarchical Translation and Rotation (.htr) file
# Generated by EVaRT
[Header]
FileType htr
DataType HTRS
FileVersion 1
NumSegments 23
NumFrames 5
DataFrameRate 120
EulerRotationOrder ZYX
CalibrationUnits mm
RotationUnits Degrees
GlobalAxisofGravity Y
BoneLengthAxis Y
ScaleFactor 1
[SegmentNames&Hierarchy]
#CHILD            PARENT
DaveRoot          GLOBAL
Spine1            DaveRoot
Spine2            Spine1
Spine3            Spine2
Spine4            Spine3
Neck              Spine4
Head              Neck
LClavicle         Spine4
LUpperArm         LClavicle
LLowerArm         LUpperArm
LHand             LLowerArm
RClavicle         Spine4
RUpperArm         RClavicle
RLowerArm         RUpperArm
RHand             RLowerArm
RUpperLeg         DaveRoot
RLowerLeg         RUpperLeg
RFoot             RLowerLeg
RToes             RFoot
LUpperLeg         DaveRoot
LLowerLeg         LUpperLeg
LFoot             LLowerLeg
LToes             LFoot
[BasePosition]
#SegmentName      Tx   Ty   Tz   Rx   Ry   Rz   BoneLength
DaveRoot          -2055.569378	951.555595	-349.488296	-55.286396	87.050266	-65.121985	100.000000
Spine1            0.000000	100.000000	0.000000	-15.583766	0.109194	-2.004305	100.000000
Spine2            0.000000	100.000000	0.000000	5.873579	0.737526	-1.849210	100.000000
Spine3            0.000000	100.000000	0.000000	12.197367	0.936767	-1.756723	100.000000
Spine4            0.000000	100.000000	0.000000	13.310112	2.040835	-0.212222	100.000000
Neck              0.000000	100.000000	0.000000	12.619245	0.173111	5.676401	80.000000
Head              0.000000	80.000000	0.000000	-46.107413	-7.464542	12.340102	200.000000
LClavicle         0.000000	100.000000	0.000000	1.044460	-1.911847	-125.483710	200.000000
LUpperArm         0.000000	200.000000	0.000000	43.357802	45.679579	2.001361	300.000000
LLowerArm         0.000000	300.000000	0.000000	0.730208	2.175812	1.895763	200.000000
LHand             0.000000	200.000000	0.000000	7.864047	-1.768569	8.793625	120.000000
RClavicle         0.000000	100.000000	0.000000	-0.545713	-3.840301	119.120382	200.000000
RUpperArm         0.000000	200.000000	0.000000	38.253382	-38.646808	20.273438	300.000000
RLowerArm         0.000000	300.000000	0.000000	3.077531	-3.682026	-7.348670	200.000000
RHand             0.000000	200.000000	0.000000	24.943087	4.220171	-5.193807	120.000000
RUpperLeg         -115.911102	-10.000000	31.058285	22.464267	14.037388	-176.329742	530.000000
RLowerLeg         0.000000	530.000000	0.000000	-23.704548	0.479387	-2.520024	460.000000
RFoot             0.000000	460.000000	0.000000	90.327319	5.730808	-0.531790	130.000000
RToes             0.000000	130.000000	0.000000	18.726053	0.005479	-0.002881	100.000000
LUpperLeg         115.911102	-10.000000	31.058285	16.272232	9.077962	178.396881	530.000000
LLowerLeg         0.000000	530.000000	0.000000	-9.044305	-3.275937	3.046484	460.000000
LFoot             0.000000	460.000000	0.000000	80.193205	-12.160808	23.252942	130.000000
LToes             0.000000	130.000000	0.000000	33.283153	-0.000000	-0.000086	100.000000
#Beginning of Data.
[DaveRoot]
#Fr	Tx	Ty	Tz	Rx	Ry	Rz	SF
278	56.666596	-7.529054	9.800455	2.878172	-5.137539	2.131354	1.000000	
279	59.129518	-7.026303	11.528767	3.169805	-4.900738	1.930045	1.000000	
280	61.353636	-6.764920	13.257053	3.209935	-4.603462	1.755735	1.000000	
281	63.856954	-6.095805	14.905916	3.577943	-4.319389	1.534545	1.000000	
282	66.054977	-5.789390	16.501523	3.580682	-4.007869	1.393522	1.000000	
[Spine1]
#Fr	Tx	Ty	Tz	Rx	Ry	Rz	SF
278	0.000000	0.000000	0.000000	-0.042119	-0.661367	-0.293130	1.000000	
279	0.000000	0.000000	0.000000	-0.140801	-0.672790	-0.185080	1.000000	
280	0.000000	0.000000	0.000000	0.066434	-0.807727	-0.116942	1.000000	
281	0.000000	0.000000	0.000000	-0.254292	-0.768220	0.008472	1.000000	
282	0.000000	0.000000	0.000000	-0.018723	-0.920048	0.042276	1.000000	
[Spine2]
#Fr	Tx	Ty	Tz	Rx	Ry	Rz	SF
278	0.000000	0.000000	0.000000	-0.042119	-0.661367	-0.293130	1.000000	
279	0.000000	0.000000	0.000000	-0.140801	-0.672790	-0.185080	1.000000	
280	0.000000	0.000000	0.000000	0.066434	-0.807727	-0.116942	1.000000	
281	0.000000	0.000000	0.000000	-0.254292	-0.768220	0.008472	1.000000	
282	0.000000	0.000000	0.000000	-0.018723	-0.920048	0.042276	1.000000	
[Spine3]
#Fr	Tx	Ty	Tz	Rx	Ry	Rz	SF
278	0.000000	0.000000	0.000000	-0.042119	-0.661367	-0.293130	1.000000	
279	0.000000	0.000000	0.000000	-0.140801	-0.672790	-0.185080	1.000000	
280	0.000000	0.000000	0.000000	0.066434	-0.807727	-0.116942	1.000000	
281	0.000000	0.000000	0.000000	-0.254292	-0.768220	0.008472	1.000000	
282	0.000000	0.000000	0.000000	-0.018723	-0.920048	0.042276	1.000000	
[Spine4]
#Fr	Tx	Ty	Tz	Rx	Ry	Rz	SF
278	0.000000	0.000000	0.000000	-0.042119	-0.661367	-0.293130	1.000000	
279	0.000000	0.000000	0.000000	-0.140801	-0.672790	-0.185080	1.000000	
280	0.000000	0.000000	0.000000	0.066434	-0.807727	-0.116942	1.000000	
281	0.000000	0.000000	0.000000	-0.254292	-0.768220	0.008472	1.000000	
282	0.000000	0.000000	0.000000	-0.018723	-0.920048	0.042276	1.000000	
[Neck]
#Fr	Tx	Ty	Tz	Rx	Ry	Rz	SF
278	0.000000	0.000000	0.000000	1.092613	13.830709	-1.733204	1.000000	
279	0.000000	0.000000	0.000000	1.402108	13.907239	-1.644173	1.000000	
280	0.000000	0.000000	0.000000	0.620336	14.187098	-1.870859	1.000000	
281	0.000000	0.000000	0.000000	1.808714	14.080520	-1.503571	1.000000	
282	0.000000	0.000000	0.000000	0.881372	14.380051	-1.696281	1.000000	
[Head]
#Fr	Tx	Ty	Tz	Rx	Ry	Rz	SF
278	0.000000	0.000000	0.000000	1.092613	13.830709	-1.733204	1.000000	
279	0.000000	0.000000	0.000000	1.402108	13.907239	-1.644173	1.000000	
280	0.000000	0.000000	0.000000	0.620336	14.187098	-1.870859	1.000000	
281	0.000000	0.000000	0.000000	1.808714	14.080520	-1.503571	1.000000	
282	0.000000	0.000000	0.000000	0.881372	14.380051	-1.696281	1.000000	
[LClavicle]
#Fr	Tx	Ty	Tz	Rx	Ry	Rz	SF
278	0.000000	0.000000	0.000000	7.911433	1.275712	11.912569	1.000000	
279	0.000000	0.000000	0.000000	8.915425	1.476854	11.684553	1.000000	
280	0.000000	0.000000	0.000000	6.945878	1.122702	11.877771	1.000000	
281	0.000000	0.000000	0.000000	10.137245	1.637215	11.935777	1.000000	
282	0.000000	0.000000	0.000000	7.867343	1.263904	11.945070	1.000000	
[LUpperArm]
#Fr	Tx	Ty	Tz	Rx	Ry	Rz	SF
278	0.000000	0.000000	0.000000	7.967344	-6.010799	-12.505527	1.000000	
279	0.000000	0.000000	0.000000	5.821984	-7.962823	-13.542782	1.000000	
280	0.000000	0.000000	0.000000	10.831186	-2.309947	-11.210794	1.000000	
281	0.000000	0.000000	0.000000	1.816385	-13.510548	-15.072168	1.000000	
282	0.000000	0.000000	0.000000	8.718352	-5.093881	-12.645737	1.000000	
[LLowerArm]
#Fr	Tx	Ty	Tz	Rx	Ry	Rz	SF
278	0.000000	0.000000	0.000000	3.811026	-0.000000	-0.000000	1.000000	
279	0.000000	0.000000	0.000000	8.300760	-0.000000	-0.000000	1.000000	
280	0.000000	0.000000	0.000000	-1.955722	-0.000000	-0.000000	1.000000	
281	0.000000	0.000000	0.000000	19.684847	-0.000000	-0.000000	1.000000	
282	0.000000	0.000000	0.000000	3.367754	-0.000000	-0.000000	1.000000	
[LHand]
#Fr	Tx	Ty	Tz	Rx	Ry	Rz	SF
278	0.000000	0.000000	0.000000	3.435114	-0.000000	0.000000	1.000000	
279	0.000000	0.000000	0.000000	-0.182493	0.000000	0.000000	1.000000	
280	0.000000	0.000000	0.000000	7.419215	0.000000	0.000000	1.000000	
281	0.000000	0.000000	0.000000	-8.978363	0.000000	0.000000	1.000000	
282	0.000000	0.000000	0.000000	3.480431	0.000000	0.000000	1.000000	
[RClavicle]
#Fr	Tx	Ty	Tz	Rx	Ry	Rz	SF
278	0.000000	0.000000	0.000000	6.004098	-0.878343	-3.003912	1.000000	
279	0.000000	0.000000	0.000000	6.198596	-0.888251	-3.173172	1.000000	
280	0.000000	0.000000	0.000000	5.757109	-0.828529	-3.134380	1.000000	
281	0.000000	0.000000	0.000000	6.693863	-0.925332	-3.461608	1.000000	
282	0.000000	0.000000	0.000000	6.199187	-0.879661	-3.251445	1.000000	
[RUpperArm]
#Fr	Tx	Ty	Tz	Rx	Ry	Rz	SF
278	0.000000	0.000000	0.000000	-2.863940	9.153283	6.499701	1.000000	
279	0.000000	0.000000	0.000000	-3.150394	9.572551	6.825455	1.000000	
280	0.000000	0.000000	0.000000	-2.252224	8.597052	6.052220	1.000000	
281	0.000000	0.000000	0.000000	-3.675535	10.709041	7.310465	1.000000	
282	0.000000	0.000000	0.000000	-2.718251	9.480289	6.341820	1.000000	
[RLowerArm]
#Fr	Tx	Ty	Tz	Rx	Ry	Rz	SF
278	0.000000	0.000000	0.000000	17.293518	-0.000000	-0.000000	1.000000	
279	0.000000	0.000000	0.000000	17.258229	-0.000000	-0.000000	1.000000	
280	0.000000	0.000000	0.000000	16.781922	-0.000000	-0.000000	1.000000	
281	0.000000	0.000000	0.000000	17.584242	-0.000000	-0.000000	1.000000	
282	0.000000	0.000000	0.000000	16.901860	-0.000000	-0.000000	1.000000	
[RHand]
#Fr	Tx	Ty	Tz	Rx	Ry	Rz	SF
278	0.000000	0.000000	0.000000	-21.465002	-10.694145	7.183055	1.000000	
279	0.000000	0.000000	0.000000	-21.421678	-10.763883	7.258092	1.000000	
280	0.000000	0.000000	0.000000	-21.191032	-10.362436	7.143480	1.000000	
281	0.000000	0.000000	0.000000	-21.800317	-10.938794	7.497847	1.000000	
282	0.000000	0.000000	0.000000	-21.283172	-10.518249	7.400354	1.000000	
[RUpperLeg]
#Fr	Tx	Ty	Tz	Rx	Ry	Rz	SF
278	0.000000	0.000000	0.000000	12.332178	-3.268627	1.497485	1.000000	
279	0.000000	0.000000	0.000000	12.669236	-3.117730	1.741533	1.000000	
280	0.000000	0.000000	0.000000	12.746499	-2.861801	1.878666	1.000000	
281	0.000000	0.000000	0.000000	13.044911	-2.553624	2.127075	1.000000	
282	0.000000	0.000000	0.000000	13.019119	-2.186718	2.209023	1.000000	
[RLowerLeg]
#Fr	Tx	Ty	Tz	Rx	Ry	Rz	SF
278	0.000000	0.000000	0.000000	-7.162265	0.000000	0.000000	1.000000	
279	0.000000	0.000000	0.000000	-6.869391	0.000000	0.000000	1.000000	
280	0.000000	0.000000	0.000000	-6.626702	0.000000	0.000000	1.000000	
281	0.000000	0.000000	0.000000	-6.242686	0.000000	0.000000	1.000000	
282	0.000000	0.000000	0.000000	-5.956957	0.000000	0.000000	1.000000	
[RFoot]
#Fr	Tx	Ty	Tz	Rx	Ry	Rz	SF
278	0.000000	0.000000	0.000000	0.379774	0.752734	-2.323469	1.000000	
279	0.000000	0.000000	0.000000	-0.537316	0.852208	-2.144421	1.000000	
280	0.000000	0.000000	0.000000	-1.344397	0.966255	-2.103046	1.000000	
281	0.000000	0.000000	0.000000	-2.213086	0.934835	-2.167547	1.000000	
282	0.000000	0.000000	0.000000	-2.787766	0.786249	-2.323960	1.000000	
[RToes]
#Fr	Tx	Ty	Tz	Rx	Ry	Rz	SF
278	0.000000	0.000000	0.000000	0.315474	0.000000	0.000000	1.000000	
279	0.000000	0.000000	0.000000	0.148119	0.000000	0.000000	1.000000	
280	0.000000	0.000000	0.000000	0.064404	0.000000	0.000000	1.000000	
281	0.000000	0.000000	0.000000	0.173444	0.000000	0.000000	1.000000	
282	0.000000	0.000000	0.000000	0.367130	-0.000000	0.000000	1.000000	
[LUpperLeg]
#Fr	Tx	Ty	Tz	Rx	Ry	Rz	SF
278	0.000000	0.000000	0.000000	1.736568	-3.561081	-0.419897	1.000000	
279	0.000000	0.000000	0.000000	1.857816	-3.345341	-0.176566	1.000000	
280	0.000000	0.000000	0.000000	1.767487	-3.079843	0.005979	1.000000	
281	0.000000	0.000000	0.000000	1.946114	-2.759796	0.261608	1.000000	
282	0.000000	0.000000	0.000000	1.799945	-2.473193	0.397609	1.000000	
[LLowerLeg]
#Fr	Tx	Ty	Tz	Rx	Ry	Rz	SF
278	0.000000	0.000000	0.000000	-5.178617	0.000000	-0.000000	1.000000	
279	0.000000	0.000000	0.000000	-5.205616	0.000000	-0.000000	1.000000	
280	0.000000	0.000000	0.000000	-5.269036	0.000000	-0.000000	1.000000	
281	0.000000	0.000000	0.000000	-5.265755	0.000000	-0.000000	1.000000	
282	0.000000	0.000000	0.000000	-5.271015	0.000000	-0.000000	1.000000	
[LFoot]
#Fr	Tx	Ty	Tz	Rx	Ry	Rz	SF
278	0.000000	0.000000	0.000000	7.159809	-2.615884	4.423894	1.000000	
279	0.000000	0.000000	0.000000	7.397556	-3.131622	4.253748	1.000000	
280	0.000000	0.000000	0.000000	7.635225	-3.609044	4.103798	1.000000	
281	0.000000	0.000000	0.000000	7.821971	-4.121654	3.978462	1.000000	
282	0.000000	0.000000	0.000000	7.991770	-4.544923	3.843151	1.000000	
[LToes]
#Fr	Tx	Ty	Tz	Rx	Ry	Rz	SF
278	0.000000	0.000000	0.000000	-0.517595	-0.000000	0.000000	1.000000	
279	0.000000	0.000000	0.000000	-0.804098	-0.000000	0.000000	1.000000	
280	0.000000	0.000000	0.000000	-1.049529	-0.000000	0.000000	1.000000	
281	0.000000	0.000000	0.000000	-1.307622	-0.000000	0.000000	1.000000	
282	0.000000	0.000000	0.000000	-1.488734	-0.000000	0.000000	1.000000	
